# xmcd CD database file
#
# Track frame offsets:
#	150
#	26297
#	45318
#	72835
#	95234
#	124044
#	150265
#	170840
#	186948
#
# Disc length: 2944 seconds
#
# Revision: 0
# Processed by: cddbd v1.5.2PL0 Copyright (c) Steve Scherf et al.
# Submitted via: CDex 1.70beta2
#
DISCID=6e0b7e09
DTITLE=Jeremy Udden - Plainville
DYEAR=2009
DGENRE=Jazz
TTITLE0=Plainville
TTITLE1=Red Coat Lane
TTITLE2=Curbs
TTITLE3=Christmas Song
TTITLE4=695
TTITLE5=Modest
TTITLE6=Big Lick
TTITLE7=The Reunion
TTITLE8=Empty Lots
EXTD=YEAR: 2009
EXTT0=
EXTT1=
EXTT2=
EXTT3=
EXTT4=
EXTT5=
EXTT6=
EXTT7=
EXTT8=
PLAYORDER=
